<svg width="250" height="250" viewBox="0 0 250 250" fill="none" xmlns="http://www.w3.org/2000/svg">
<path d="M192.531 174.656C178.293 178.075 163.43 177.909 149.272 174.174C135.114 170.439 122.103 163.251 111.405 153.253C100.706 143.256 92.6544 130.761 87.9699 116.888C83.2855 103.015 82.1147 88.197 84.5625 73.7605C84.1902 74.12 83.7972 74.4574 83.3854 74.7709C80.4688 76.9897 76.8229 77.8126 69.5313 79.4584L62.9167 80.9584C37.2917 86.7605 24.4792 89.6563 21.4271 99.4584C18.3854 109.25 27.1146 119.469 44.5833 139.896L49.1042 145.177C54.0625 150.979 56.5521 153.885 57.6667 157.469C58.7813 161.063 58.4063 164.938 57.6563 172.677L56.9688 179.729C54.3333 206.99 53.0104 220.615 60.9896 226.667C68.9688 232.729 80.9687 227.208 104.948 216.156L111.167 213.302C117.979 210.156 121.385 208.594 125 208.594C128.615 208.594 132.021 210.156 138.844 213.302L145.042 216.156C169.031 227.198 181.031 232.719 189 226.677C196.99 220.615 195.667 206.99 193.031 179.729L192.531 174.656Z" fill="white"/>
<path opacity="0.5" d="M95.3437 56.3333L91.9271 62.4583C88.1771 69.1874 86.3021 72.552 83.3854 74.7708C83.8021 74.4583 84.1875 74.1249 84.5625 73.7603C82.1141 88.1979 83.2848 103.017 87.9697 116.891C92.6547 130.765 100.708 143.261 111.407 153.259C122.107 163.256 135.119 170.444 149.279 174.179C163.438 177.913 178.303 178.077 192.542 174.656L192.333 172.677C191.594 164.937 191.219 161.062 192.333 157.469C193.448 153.885 195.927 150.979 200.896 145.177L205.417 139.896C222.885 119.479 231.615 109.26 228.562 99.4583C225.521 89.6562 212.708 86.7499 187.083 80.9583L180.458 79.4583C173.177 77.8124 169.531 76.9895 166.604 74.7708C163.687 72.552 161.812 69.1874 158.062 62.4583L154.656 56.3333C141.458 32.6666 134.865 20.8333 125 20.8333C115.135 20.8333 108.542 32.6666 95.3437 56.3333Z" fill="white"/>
</svg>
