<svg width="200" height="250" viewBox="0 0 200 250" fill="none" xmlns="http://www.w3.org/2000/svg">
<g clip-path="url(#clip0_9_95)">
<path d="M56.9023 84.5947C69.9179 72.3926 69.9179 52.6025 56.9023 40.4004C43.8866 28.1982 22.7773 28.1982 9.76164 40.4004C-3.25398 52.6025 -3.25398 72.3926 9.76164 84.5947C22.7825 96.8018 43.8866 96.8018 56.9023 84.5947ZM190.236 165.4C177.22 153.198 156.111 153.198 143.095 165.4C130.079 177.603 130.079 197.393 143.095 209.595C156.111 221.797 177.22 221.797 190.236 209.595C203.256 197.393 203.256 177.607 190.236 165.4ZM189.225 52.3975L177.444 41.3525C170.934 35.249 160.381 35.249 153.876 41.3525L10.7773 175.508C4.26685 181.611 4.26685 191.504 10.7773 197.603L22.5585 208.647C29.0689 214.751 39.621 214.751 46.1262 208.647L189.225 74.4922C195.736 68.3936 195.736 58.501 189.225 52.3975Z" fill="white"/>
</g>
<defs>
<clipPath id="clip0_9_95">
<rect width="200" height="250" fill="white"/>
</clipPath>
</defs>
</svg>
