<svg version="1.1" id="Layer_1" xmlns="http://www.w3.org/2000/svg" xmlns:xlink="http://www.w3.org/1999/xlink" x="0px" y="0px"
	 width="100%" viewBox="0 0 763 479" enable-background="new 0 0 763 479" xml:space="preserve">
<path fill="#000000" opacity="1.000000" stroke="none" 
	d="
M485.000000,480.000000 
	C323.333344,480.000000 162.166672,480.000000 1.000000,480.000000 
	C1.000000,320.333344 1.000000,160.666672 1.000000,1.000000 
	C255.333328,1.000000 509.666656,1.000000 764.000000,1.000000 
	C764.000000,160.666672 764.000000,320.333344 764.000000,480.000000 
	C671.166687,480.000000 578.333313,480.000000 485.000000,480.000000 
M100.974213,204.500000 
	C100.974213,194.715744 100.974213,184.931473 100.974213,174.681610 
	C105.170868,174.681610 108.962036,174.873276 112.723610,174.622025 
	C115.829544,174.414566 117.351982,175.623459 118.785255,178.383026 
	C127.465164,195.094864 136.450607,211.647842 145.172470,228.338257 
	C146.666229,231.196732 148.371796,232.367874 151.688400,232.324600 
	C166.014389,232.137695 180.344238,232.257767 194.672592,232.224823 
	C196.054626,232.221649 197.435989,231.933151 199.392365,231.712189 
	C187.501755,209.874786 175.927444,188.618271 164.992142,168.535324 
	C171.482437,162.385254 178.585983,157.192459 183.704147,150.484756 
	C194.438568,136.416519 195.383011,119.885300 192.483185,103.075500 
	C189.628586,86.527885 180.185303,74.340714 165.917847,65.916359 
	C155.574402,59.808987 144.075302,57.221775 132.186432,57.104824 
	C107.863777,56.865551 83.537117,57.031750 59.212112,57.033413 
	C52.837753,57.033848 52.381435,57.412766 52.379192,63.688923 
	C52.359718,118.170265 52.397289,172.651657 52.304218,227.132858 
	C52.297661,230.968338 53.375786,232.392120 57.396709,232.325409 
	C70.555244,232.107117 83.719704,232.256439 96.881783,232.222748 
	C98.147141,232.219513 99.411751,231.926300 100.974213,231.730408 
	C100.974213,222.773773 100.974213,214.136887 100.974213,204.500000 
M448.163513,57.036068 
	C435.335785,57.035732 422.502502,57.252560 409.683258,56.922195 
	C404.928558,56.799660 403.837311,58.346012 403.849365,62.883965 
	C403.994568,117.694061 403.941711,172.504669 403.951172,227.315155 
	C403.951447,228.766663 404.072723,230.218124 404.147064,231.881775 
	C420.187744,231.881775 435.896149,231.881775 452.027283,231.881775 
	C452.027283,218.069336 452.003845,204.612946 452.058258,191.156860 
	C452.064758,189.547272 451.971863,187.561386 452.815765,186.393616 
	C457.404968,180.043198 462.273590,173.894730 467.264008,167.392700 
	C468.123718,168.547943 468.664124,169.156494 469.074585,169.842743 
	C480.778290,189.411087 492.527985,208.952484 504.095612,228.601028 
	C505.758484,231.425522 507.667816,232.333389 510.830383,232.305817 
	C526.655884,232.167801 542.483337,232.255508 558.310059,232.228790 
	C559.835266,232.226212 561.360107,231.982330 563.375610,231.808060 
	C562.325806,229.973007 561.715454,228.821548 561.028564,227.717743 
	C542.532593,197.997101 524.070068,168.255417 505.452209,138.611298 
	C503.871094,136.093781 503.644806,134.339294 505.451111,131.999023 
	C516.778503,117.323128 528.060486,102.611855 539.293762,87.863716 
	C546.678833,78.167900 553.956909,68.390594 561.792297,57.972553 
	C559.790161,57.546089 558.593140,57.072540 557.394592,57.068844 
	C541.401428,57.019531 525.407227,56.961491 509.416046,57.147995 
	C507.765961,57.167240 505.575073,58.323772 504.577179,59.657448 
	C488.307587,81.401527 472.200287,103.266960 456.005585,125.067291 
	C455.255920,126.076416 454.030426,126.732056 452.028229,128.368042 
	C452.028229,125.382118 452.028290,123.779121 452.028229,122.176132 
	C452.027618,102.184471 452.042389,82.192772 452.004364,62.201183 
	C452.000214,60.021820 452.818512,57.203884 448.163513,57.036068 
M352.445343,124.024834 
	C345.604309,103.318550 338.657959,82.645950 332.015900,61.876038 
	C330.767029,57.970863 328.867462,56.896919 324.930176,56.942528 
	C306.933655,57.150986 288.930176,57.221420 270.936646,56.909634 
	C266.101532,56.825855 264.334167,58.779480 262.959747,62.979279 
	C247.359650,110.647957 231.599365,158.264206 215.894882,205.898727 
	C213.074844,214.452408 210.313477,223.025421 207.319168,232.221786 
	C224.284637,232.221786 240.422501,232.290756 256.556732,232.080399 
	C257.745087,232.064896 259.540222,230.243240 259.978729,228.908295 
	C262.815918,220.271271 265.418030,211.554626 267.953979,202.822495 
	C268.752991,200.071182 269.985596,198.909637 273.125031,198.946213 
	C289.455170,199.136566 305.789978,199.142029 322.119995,198.945541 
	C325.454865,198.905441 326.718292,200.076584 327.564392,203.106308 
	C329.871582,211.367645 332.879211,219.450897 334.826691,227.787552 
	C335.761139,231.787674 337.639923,232.313263 341.009613,232.287888 
	C355.007996,232.182388 369.007629,232.254700 383.006744,232.229828 
	C384.582855,232.227020 386.158630,232.021927 387.975098,231.893661 
	C376.140991,195.846191 364.469574,160.294373 352.445343,124.024834 
M663.120850,188.494736 
	C654.873962,196.067139 644.928101,195.627670 635.002014,193.977264 
	C621.802185,191.782578 615.208313,183.124252 614.005615,170.043747 
	C599.785217,170.043747 586.133240,170.101181 572.482422,169.999603 
	C569.426636,169.976883 568.990295,171.436508 568.978943,174.026474 
	C568.864441,200.076675 582.745850,220.387070 608.096497,228.908981 
	C629.914917,236.243439 652.265625,236.175827 674.369202,230.768051 
	C696.908447,225.253677 713.743713,209.646667 715.425110,185.674088 
	C716.799377,166.080292 710.268066,150.246033 693.530334,139.221329 
	C681.398010,131.230072 667.531372,128.161697 653.653564,124.954971 
	C645.662170,123.108414 637.472412,121.262390 630.088928,117.860062 
	C620.831116,113.594009 620.688416,101.740738 629.582336,97.394997 
	C639.318542,92.637688 649.889709,92.496796 659.115784,98.056763 
	C663.426392,100.654434 665.654053,106.708549 669.556213,112.229576 
	C681.981262,112.229576 696.131470,112.212952 710.281555,112.242279 
	C713.477478,112.248901 713.424133,110.525078 713.216980,107.969696 
	C711.369751,85.180351 699.471375,69.586876 678.667969,61.121990 
	C655.954041,51.879677 632.791260,52.334103 609.899231,60.750507 
	C595.917969,65.890793 584.654541,74.605301 578.045471,88.374092 
	C568.708557,107.825790 570.826294,136.495346 596.426758,150.246521 
	C609.062622,157.033875 622.712219,159.642090 636.296631,163.029984 
	C644.400513,165.051056 652.624146,167.258957 660.140076,170.779053 
	C667.341736,174.151901 668.200500,181.165497 663.120850,188.494736 
M360.520508,371.368195 
	C379.682556,371.368225 398.846588,371.517975 418.005127,371.258362 
	C422.547058,371.196838 424.694611,372.466644 426.197998,376.908508 
	C431.485687,392.531647 437.236847,407.998840 442.918091,423.486328 
	C443.418457,424.850311 444.565857,426.830261 445.626587,426.976837 
	C448.926117,427.432831 452.328552,427.143890 456.026764,427.143890 
	C451.778809,415.239929 447.879547,404.216827 443.914124,393.217560 
	C427.575195,347.896759 411.128326,302.614471 394.990082,257.222382 
	C393.226807,252.262833 390.341187,251.993484 386.050598,251.877594 
	C381.794952,251.762604 379.562653,252.874237 378.063141,257.086975 
	C362.074127,302.005676 345.903870,346.859894 329.768768,391.726562 
	C325.597839,403.324554 321.375732,414.904144 316.900391,427.256012 
	C319.431702,427.256012 321.260864,427.018707 323.005463,427.301971 
	C327.626740,428.052338 329.649139,426.019867 331.078430,421.674713 
	C335.507446,408.210175 340.404205,394.899261 345.135376,381.534393 
	C348.735504,371.364502 348.746368,371.368347 360.520508,371.368195 
M282.003754,353.596985 
	C300.906372,345.191559 310.345520,330.305023 312.288757,310.019318 
	C315.438568,277.138397 292.910522,252.037430 260.017914,252.029984 
	C243.856247,252.026321 227.694595,252.028656 211.532928,252.029663 
	C204.836578,252.030090 204.829453,252.031723 204.829224,258.481110 
	C204.827255,312.797607 204.828094,367.114136 204.828094,421.430634 
	C204.828094,423.202637 204.828110,424.974640 204.828110,426.939026 
	C208.856110,426.939026 212.256577,426.939026 216.128662,426.939026 
	C216.128662,403.911041 216.128662,381.188751 216.128662,357.876312 
	C218.211212,357.876312 219.823593,357.876312 221.435989,357.876312 
	C233.765503,357.876312 246.119202,358.342926 258.415680,357.705475 
	C266.085938,357.307831 273.669800,355.243225 282.003754,353.596985 
M576.500000,252.309402 
	C575.757568,253.193863 574.913208,254.011978 574.287842,254.972595 
	C561.755920,274.221588 549.272339,293.502045 536.726257,312.741821 
	C531.607605,320.591492 526.364624,328.360138 520.921082,336.552673 
	C519.963684,335.295197 519.349060,334.582611 518.837646,333.802429 
	C501.887085,307.942749 484.951965,282.072968 467.999207,256.214722 
	C464.903503,251.492767 458.031036,250.295883 453.159912,253.668671 
	C453.456421,254.230927 453.714844,254.838928 454.072235,255.381790 
	C473.436646,284.797699 492.873199,314.166595 512.073975,343.688904 
	C513.828735,346.387054 514.866699,350.055664 514.900757,353.287720 
	C515.139648,375.951294 515.027161,398.618591 515.027039,421.284698 
	C515.027039,423.067932 515.027039,424.851166 515.027039,426.827515 
	C516.664490,427.007141 517.785095,427.207794 518.910645,427.241058 
	C526.907227,427.477417 526.907837,427.466492 526.907837,419.537964 
	C526.907837,396.871857 526.841492,374.205292 527.002380,351.540314 
	C527.019836,349.076202 527.809570,346.269012 529.151123,344.215424 
	C547.864014,315.570190 566.748291,287.036926 585.534180,258.439209 
	C586.570312,256.861969 587.110535,254.958984 587.881592,253.207611 
	C586.021667,252.813446 584.177490,252.276169 582.296997,252.068283 
	C580.654053,251.886642 578.970032,252.075821 576.500000,252.309402 
z"/>
<path fill="#FDFDFD" opacity="1.000000" stroke="none" 
	d="
M100.974213,205.000000 
	C100.974213,214.136887 100.974213,222.773773 100.974213,231.730408 
	C99.411751,231.926300 98.147141,232.219513 96.881783,232.222748 
	C83.719704,232.256439 70.555244,232.107117 57.396709,232.325409 
	C53.375786,232.392120 52.297661,230.968338 52.304218,227.132858 
	C52.397289,172.651657 52.359718,118.170265 52.379192,63.688923 
	C52.381435,57.412766 52.837753,57.033848 59.212112,57.033413 
	C83.537117,57.031750 107.863777,56.865551 132.186432,57.104824 
	C144.075302,57.221775 155.574402,59.808987 165.917847,65.916359 
	C180.185303,74.340714 189.628586,86.527885 192.483185,103.075500 
	C195.383011,119.885300 194.438568,136.416519 183.704147,150.484756 
	C178.585983,157.192459 171.482437,162.385254 164.992142,168.535324 
	C175.927444,188.618271 187.501755,209.874786 199.392365,231.712189 
	C197.435989,231.933151 196.054626,232.221649 194.672592,232.224823 
	C180.344238,232.257767 166.014389,232.137695 151.688400,232.324600 
	C148.371796,232.367874 146.666229,231.196732 145.172470,228.338257 
	C136.450607,211.647842 127.465164,195.094864 118.785255,178.383026 
	C117.351982,175.623459 115.829544,174.414566 112.723610,174.622025 
	C108.962036,174.873276 105.170868,174.681610 100.974213,174.681610 
	C100.974213,184.931473 100.974213,194.715744 100.974213,205.000000 
M100.972359,100.602249 
	C100.972359,112.672203 100.972359,124.742157 100.972359,137.623962 
	C110.816368,136.989136 120.183388,137.163986 129.246506,135.589478 
	C139.017212,133.892029 143.485626,127.095322 143.490387,116.982216 
	C143.495392,106.348610 138.723175,98.902664 129.049988,97.324425 
	C120.447372,95.920860 111.552887,96.242645 102.782043,96.077675 
	C102.201187,96.066750 101.576439,98.389297 100.972359,100.602249 
z"/>
<path fill="#FEFEFE" opacity="1.000000" stroke="none" 
	d="
M448.631104,57.038090 
	C452.818512,57.203884 452.000214,60.021820 452.004364,62.201183 
	C452.042389,82.192772 452.027618,102.184471 452.028229,122.176132 
	C452.028290,123.779121 452.028229,125.382118 452.028229,128.368042 
	C454.030426,126.732056 455.255920,126.076416 456.005585,125.067291 
	C472.200287,103.266960 488.307587,81.401527 504.577179,59.657448 
	C505.575073,58.323772 507.765961,57.167240 509.416046,57.147995 
	C525.407227,56.961491 541.401428,57.019531 557.394592,57.068844 
	C558.593140,57.072540 559.790161,57.546089 561.792297,57.972553 
	C553.956909,68.390594 546.678833,78.167900 539.293762,87.863716 
	C528.060486,102.611855 516.778503,117.323128 505.451111,131.999023 
	C503.644806,134.339294 503.871094,136.093781 505.452209,138.611298 
	C524.070068,168.255417 542.532593,197.997101 561.028564,227.717743 
	C561.715454,228.821548 562.325806,229.973007 563.375610,231.808060 
	C561.360107,231.982330 559.835266,232.226212 558.310059,232.228790 
	C542.483337,232.255508 526.655884,232.167801 510.830383,232.305817 
	C507.667816,232.333389 505.758484,231.425522 504.095612,228.601028 
	C492.527985,208.952484 480.778290,189.411087 469.074585,169.842743 
	C468.664124,169.156494 468.123718,168.547943 467.264008,167.392700 
	C462.273590,173.894730 457.404968,180.043198 452.815765,186.393616 
	C451.971863,187.561386 452.064758,189.547272 452.058258,191.156860 
	C452.003845,204.612946 452.027283,218.069336 452.027283,231.881775 
	C435.896149,231.881775 420.187744,231.881775 404.147064,231.881775 
	C404.072723,230.218124 403.951447,228.766663 403.951172,227.315155 
	C403.941711,172.504669 403.994568,117.694061 403.849365,62.883965 
	C403.837311,58.346012 404.928558,56.799660 409.683258,56.922195 
	C422.502502,57.252560 435.335785,57.035732 448.631104,57.038090 
z"/>
<path fill="#FEFEFE" opacity="1.000000" stroke="none" 
	d="
M352.621765,124.383698 
	C364.469574,160.294373 376.140991,195.846191 387.975098,231.893661 
	C386.158630,232.021927 384.582855,232.227020 383.006744,232.229828 
	C369.007629,232.254700 355.007996,232.182388 341.009613,232.287888 
	C337.639923,232.313263 335.761139,231.787674 334.826691,227.787552 
	C332.879211,219.450897 329.871582,211.367645 327.564392,203.106308 
	C326.718292,200.076584 325.454865,198.905441 322.119995,198.945541 
	C305.789978,199.142029 289.455170,199.136566 273.125031,198.946213 
	C269.985596,198.909637 268.752991,200.071182 267.953979,202.822495 
	C265.418030,211.554626 262.815918,220.271271 259.978729,228.908295 
	C259.540222,230.243240 257.745087,232.064896 256.556732,232.080399 
	C240.422501,232.290756 224.284637,232.221786 207.319168,232.221786 
	C210.313477,223.025421 213.074844,214.452408 215.894882,205.898727 
	C231.599365,158.264206 247.359650,110.647957 262.959747,62.979279 
	C264.334167,58.779480 266.101532,56.825855 270.936646,56.909634 
	C288.930176,57.221420 306.933655,57.150986 324.930176,56.942528 
	C328.867462,56.896919 330.767029,57.970863 332.015900,61.876038 
	C338.657959,82.645950 345.604309,103.318550 352.621765,124.383698 
M304.301056,127.062286 
	C302.282806,120.171295 300.264587,113.280296 298.246338,106.389297 
	C297.855408,106.419968 297.464478,106.450630 297.073517,106.481300 
	C291.518555,124.957253 285.963593,143.433197 280.336243,162.149811 
	C292.372009,162.149811 303.561615,162.149811 315.130737,162.149811 
	C311.554871,150.403259 308.112427,139.094894 304.301056,127.062286 
z"/>
<path fill="#FDFDFD" opacity="1.000000" stroke="none" 
	d="
M663.402588,188.230713 
	C668.200500,181.165497 667.341736,174.151901 660.140076,170.779053 
	C652.624146,167.258957 644.400513,165.051056 636.296631,163.029984 
	C622.712219,159.642090 609.062622,157.033875 596.426758,150.246521 
	C570.826294,136.495346 568.708557,107.825790 578.045471,88.374092 
	C584.654541,74.605301 595.917969,65.890793 609.899231,60.750507 
	C632.791260,52.334103 655.954041,51.879677 678.667969,61.121990 
	C699.471375,69.586876 711.369751,85.180351 713.216980,107.969696 
	C713.424133,110.525078 713.477478,112.248901 710.281555,112.242279 
	C696.131470,112.212952 681.981262,112.229576 669.556213,112.229576 
	C665.654053,106.708549 663.426392,100.654434 659.115784,98.056763 
	C649.889709,92.496796 639.318542,92.637688 629.582336,97.394997 
	C620.688416,101.740738 620.831116,113.594009 630.088928,117.860062 
	C637.472412,121.262390 645.662170,123.108414 653.653564,124.954971 
	C667.531372,128.161697 681.398010,131.230072 693.530334,139.221329 
	C710.268066,150.246033 716.799377,166.080292 715.425110,185.674088 
	C713.743713,209.646667 696.908447,225.253677 674.369202,230.768051 
	C652.265625,236.175827 629.914917,236.243439 608.096497,228.908981 
	C582.745850,220.387070 568.864441,200.076675 568.978943,174.026474 
	C568.990295,171.436508 569.426636,169.976883 572.482422,169.999603 
	C586.133240,170.101181 599.785217,170.043747 614.005615,170.043747 
	C615.208313,183.124252 621.802185,191.782578 635.002014,193.977264 
	C644.928101,195.627670 654.873962,196.067139 663.402588,188.230713 
z"/>
<path fill="#FAFAFA" opacity="1.000000" stroke="none" 
	d="
M360.024689,371.368164 
	C348.746368,371.368347 348.735504,371.364502 345.135376,381.534393 
	C340.404205,394.899261 335.507446,408.210175 331.078430,421.674713 
	C329.649139,426.019867 327.626740,428.052338 323.005463,427.301971 
	C321.260864,427.018707 319.431702,427.256012 316.900391,427.256012 
	C321.375732,414.904144 325.597839,403.324554 329.768768,391.726562 
	C345.903870,346.859894 362.074127,302.005676 378.063141,257.086975 
	C379.562653,252.874237 381.794952,251.762604 386.050598,251.877594 
	C390.341187,251.993484 393.226807,252.262833 394.990082,257.222382 
	C411.128326,302.614471 427.575195,347.896759 443.914124,393.217560 
	C447.879547,404.216827 451.778809,415.239929 456.026764,427.143890 
	C452.328552,427.143890 448.926117,427.432831 445.626587,426.976837 
	C444.565857,426.830261 443.418457,424.850311 442.918091,423.486328 
	C437.236847,407.998840 431.485687,392.531647 426.197998,376.908508 
	C424.694611,372.466644 422.547058,371.196838 418.005127,371.258362 
	C398.846588,371.517975 379.682556,371.368225 360.024689,371.368164 
M399.046082,301.470032 
	C394.983093,289.996368 390.920074,278.522705 386.519714,266.096344 
	C375.060181,298.180084 363.946503,329.295441 352.712036,360.749054 
	C375.444794,360.749054 397.604919,360.749054 420.346924,360.749054 
	C413.213806,340.928223 406.248993,321.575073 399.046082,301.470032 
z"/>
<path fill="#FCFCFC" opacity="1.000000" stroke="none" 
	d="
M281.648071,353.761841 
	C273.669800,355.243225 266.085938,357.307831 258.415680,357.705475 
	C246.119202,358.342926 233.765503,357.876312 221.435989,357.876312 
	C219.823593,357.876312 218.211212,357.876312 216.128662,357.876312 
	C216.128662,381.188751 216.128662,403.911041 216.128662,426.939026 
	C212.256577,426.939026 208.856110,426.939026 204.828110,426.939026 
	C204.828110,424.974640 204.828094,423.202637 204.828094,421.430634 
	C204.828094,367.114136 204.827255,312.797607 204.829224,258.481110 
	C204.829453,252.031723 204.836578,252.030090 211.532928,252.029663 
	C227.694595,252.028656 243.856247,252.026321 260.017914,252.029984 
	C292.910522,252.037430 315.438568,277.138397 312.288757,310.019318 
	C310.345520,330.305023 300.906372,345.191559 281.648071,353.761841 
M228.525055,346.995361 
	C239.842880,346.995544 251.178467,347.395111 262.473907,346.892365 
	C275.856018,346.296753 287.053955,341.129974 294.607819,329.372131 
	C299.934204,321.081421 301.190033,312.006073 301.092987,302.405121 
	C300.868958,280.244843 284.421875,263.265594 262.417969,262.996124 
	C248.606033,262.826996 234.788162,263.047760 220.979462,262.770020 
	C217.043121,262.690826 215.876587,263.696320 215.911591,267.732483 
	C216.107971,290.366333 216.006119,313.002777 216.006104,335.638336 
	C216.006088,346.995361 216.006119,346.995361 228.525055,346.995361 
z"/>
<path fill="#FAFAFA" opacity="1.000000" stroke="none" 
	d="
M576.902100,252.205292 
	C578.970032,252.075821 580.654053,251.886642 582.296997,252.068283 
	C584.177490,252.276169 586.021667,252.813446 587.881592,253.207611 
	C587.110535,254.958984 586.570312,256.861969 585.534180,258.439209 
	C566.748291,287.036926 547.864014,315.570190 529.151123,344.215424 
	C527.809570,346.269012 527.019836,349.076202 527.002380,351.540314 
	C526.841492,374.205292 526.907837,396.871857 526.907837,419.537964 
	C526.907837,427.466492 526.907227,427.477417 518.910645,427.241058 
	C517.785095,427.207794 516.664490,427.007141 515.027039,426.827515 
	C515.027039,424.851166 515.027039,423.067932 515.027039,421.284698 
	C515.027161,398.618591 515.139648,375.951294 514.900757,353.287720 
	C514.866699,350.055664 513.828735,346.387054 512.073975,343.688904 
	C492.873199,314.166595 473.436646,284.797699 454.072235,255.381790 
	C453.714844,254.838928 453.456421,254.230927 453.159912,253.668671 
	C458.031036,250.295883 464.903503,251.492767 467.999207,256.214722 
	C484.951965,282.072968 501.887085,307.942749 518.837646,333.802429 
	C519.349060,334.582611 519.963684,335.295197 520.921082,336.552673 
	C526.364624,328.360138 531.607605,320.591492 536.726257,312.741821 
	C549.272339,293.502045 561.755920,274.221588 574.287842,254.972595 
	C574.913208,254.011978 575.757568,253.193863 576.902100,252.205292 
z"/>
<path fill="#010101" opacity="1.000000" stroke="none" 
	d="
M100.972229,100.114365 
	C101.576439,98.389297 102.201187,96.066750 102.782043,96.077675 
	C111.552887,96.242645 120.447372,95.920860 129.049988,97.324425 
	C138.723175,98.902664 143.495392,106.348610 143.490387,116.982216 
	C143.485626,127.095322 139.017212,133.892029 129.246506,135.589478 
	C120.183388,137.163986 110.816368,136.989136 100.972359,137.623962 
	C100.972359,124.742157 100.972359,112.672203 100.972229,100.114365 
z"/>
<path fill="#020202" opacity="1.000000" stroke="none" 
	d="
M304.485504,127.424408 
	C308.112427,139.094894 311.554871,150.403259 315.130737,162.149811 
	C303.561615,162.149811 292.372009,162.149811 280.336243,162.149811 
	C285.963593,143.433197 291.518555,124.957253 297.073517,106.481300 
	C297.464478,106.450630 297.855408,106.419968 298.246338,106.389297 
	C300.264587,113.280296 302.282806,120.171295 304.485504,127.424408 
z"/>
<path fill="#010101" opacity="1.000000" stroke="none" 
	d="
M399.165131,301.846008 
	C406.248993,321.575073 413.213806,340.928223 420.346924,360.749054 
	C397.604919,360.749054 375.444794,360.749054 352.712036,360.749054 
	C363.946503,329.295441 375.060181,298.180084 386.519714,266.096344 
	C390.920074,278.522705 394.983093,289.996368 399.165131,301.846008 
z"/>
<path fill="#000000" opacity="1.000000" stroke="none" 
	d="
M228.029892,346.995361 
	C216.006119,346.995361 216.006088,346.995361 216.006104,335.638336 
	C216.006119,313.002777 216.107971,290.366333 215.911591,267.732483 
	C215.876587,263.696320 217.043121,262.690826 220.979462,262.770020 
	C234.788162,263.047760 248.606033,262.826996 262.417969,262.996124 
	C284.421875,263.265594 300.868958,280.244843 301.092987,302.405121 
	C301.190033,312.006073 299.934204,321.081421 294.607819,329.372131 
	C287.053955,341.129974 275.856018,346.296753 262.473907,346.892365 
	C251.178467,347.395111 239.842880,346.995544 228.029892,346.995361 
z"/>
</svg>